<svg id="syntx-logo" version="1.0" xmlns="http://www.w3.org/2000/svg"
 width="300.000000pt" height="300.000000pt" viewBox="0 0 300.000000 300.000000"
 preserveAspectRatio="xMidYMid meet">
<metadata>
Created by potrace 1.16, written by Peter Selinger 2001-2019
</metadata>
<g transform="translate(0.000000,300.000000) scale(0.100000,-0.100000)"
fill="#000000" stroke="none">
<path d="M0 1500 l0 -1500 1500 0 1500 0 0 1500 0 1500 -1500 0 -1500 0 0
-1500z m1665 1224 c90 -20 234 -90 307 -149 110 -88 202 -238 240 -389 17 -67
20 -101 15 -201 -8 -202 -70 -341 -217 -486 -71 -71 -103 -94 -181 -133 -125
-61 -200 -79 -329 -80 -126 0 -213 20 -320 74 -189 96 -329 270 -386 480 -26
96 -24 262 5 365 81 290 335 505 634 534 86 9 139 5 232 -15z m-276 -1660 c25
-27 70 -77 100 -111 30 -34 58 -60 63 -57 4 3 9 38 9 77 2 104 9 130 39 137
39 9 69 0 76 -24 7 -20 6 -218 -1 -281 -2 -16 -3 -53 -4 -82 -1 -52 -1 -52
-38 -59 -37 -7 -37 -6 -149 111 -69 73 -114 113 -119 106 -3 -7 -10 -54 -14
-106 -3 -52 -12 -100 -18 -106 -7 -7 -25 -9 -47 -5 -31 6 -36 11 -38 36 -1 17
-3 42 -4 58 -3 34 -7 279 -5 309 2 33 25 50 66 48 31 -1 45 -9 84 -51z m718
49 c35 -5 48 -34 37 -77 -5 -22 -13 -25 -68 -31 -35 -4 -68 -10 -75 -14 -7 -5
-13 -59 -17 -157 -3 -82 -9 -152 -13 -156 -13 -15 -78 -19 -88 -6 -6 7 -13 76
-16 154 -4 77 -9 148 -13 157 -5 13 -19 17 -64 17 -63 0 -75 8 -82 56 -4 34 7
50 43 57 30 6 314 6 356 0z m-1392 -26 c4 -12 1 -35 -4 -50 -9 -24 -16 -27
-58 -28 -27 0 -59 -2 -73 -5 -77 -12 -90 -16 -90 -23 0 -11 60 -35 126 -50 28
-7 67 -25 85 -41 32 -26 34 -31 34 -93 0 -73 -16 -99 -72 -123 -34 -15 -178
-19 -245 -8 -37 6 -38 8 -38 50 l0 44 48 1 c108 2 192 14 192 28 0 9 -14 15
-120 51 -69 24 -115 62 -126 105 -14 56 22 136 70 155 11 5 76 9 143 9 120 1
123 0 128 -22z m189 -19 c20 -23 36 -45 36 -49 0 -5 12 -15 27 -22 25 -14 27
-13 72 47 l46 61 58 3 c54 3 57 2 57 -21 0 -13 -22 -53 -48 -88 -83 -109 -104
-155 -116 -249 l-11 -85 -45 0 -45 0 -13 94 c-14 99 -17 106 -137 276 -48 69
-46 75 24 75 57 0 61 -1 95 -42z m1420 6 c74 -88 77 -90 92 -68 8 10 33 38 56
62 39 39 46 42 95 42 29 0 53 -5 53 -10 0 -6 -29 -52 -64 -103 -40 -58 -63
-101 -62 -117 1 -14 29 -66 63 -117 l62 -91 -52 -4 c-51 -3 -53 -3 -106 49
-30 29 -60 53 -66 53 -7 0 -38 -25 -68 -55 -56 -56 -77 -64 -133 -47 -21 7
-20 9 17 67 95 150 92 145 81 170 -6 13 -33 55 -60 92 -27 37 -53 78 -56 91
-7 21 -5 22 55 22 59 0 63 -2 93 -36z"/>
<path d="M1388 2640 c-127 -22 -255 -90 -351 -186 -45 -45 -109 -149 -131
-212 -25 -69 -46 -212 -41 -272 11 -123 38 -204 102 -302 74 -112 153 -181
276 -238 128 -60 317 -70 457 -23 125 42 268 153 341 266 83 129 118 314 86
462 -18 82 -53 179 -71 198 -8 7 -20 26 -29 43 -36 70 -168 180 -270 223 -104
45 -250 61 -369 41z m-128 -136 c-51 -44 -74 -99 -75 -180 0 -61 4 -76 28
-113 15 -23 49 -57 75 -74 74 -51 151 -127 180 -178 20 -37 29 -45 39 -37 7 6
13 15 13 21 0 5 11 25 25 43 14 18 25 36 25 41 0 4 35 33 77 63 148 107 173
139 173 225 0 71 -19 121 -64 173 -43 48 -35 50 32 8 77 -48 122 -136 122
-237 0 -33 -5 -69 -10 -80 -7 -13 -7 -19 0 -19 5 0 10 5 10 10 0 6 9 30 20 52
11 23 20 48 20 55 0 29 20 10 30 -29 44 -161 -27 -298 -196 -373 -27 -12 -67
-37 -87 -55 -21 -18 -40 -30 -43 -27 -3 3 -8 27 -12 53 l-7 48 -18 -39 c-9
-22 -26 -107 -36 -188 -16 -125 -23 -153 -42 -173 -27 -28 -50 -31 -71 -6 -28
32 -40 63 -44 120 -11 151 -41 292 -63 292 -3 0 -5 -19 -3 -42 4 -61 -9 -77
-39 -49 -28 26 -135 91 -150 91 -6 0 -18 7 -27 15 -100 92 -120 126 -129 211
-6 54 13 164 27 164 4 0 10 -14 14 -30 12 -61 96 -210 96 -171 0 5 -6 16 -13
23 -42 42 -53 196 -19 268 23 49 67 96 122 129 48 29 58 26 20 -5z"/>
<path d="M1781 2646 c2 -2 15 -9 29 -15 24 -11 24 -11 6 3 -16 13 -49 24 -35
12z"/>
<path d="M1069 2562 c-48 -40 -99 -91 -99 -101 0 -3 24 17 53 45 28 28 65 60
81 72 16 12 25 22 20 22 -5 -1 -30 -18 -55 -38z"/>
<path d="M935 2419 c-4 -6 -5 -12 -2 -15 2 -3 7 2 10 11 7 17 1 20 -8 4z"/>
<path d="M890 2345 c-7 -14 -17 -25 -22 -25 -4 0 -8 -9 -8 -20 0 -12 -7 -34
-15 -50 -9 -17 -11 -30 -5 -30 5 0 10 5 10 10 0 6 13 38 30 72 29 61 36 92 10
43z"/>
<path d="M2140 2287 c0 -12 34 -104 41 -112 5 -5 0 19 -12 53 -17 51 -29 75
-29 59z"/>
<path d="M2180 2136 c0 -8 4 -17 9 -20 5 -4 7 3 4 14 -6 23 -13 26 -13 6z"/>
<path d="M800 2030 c0 -11 4 -20 9 -20 5 0 7 9 4 20 -3 11 -7 20 -9 20 -2 0
-4 -9 -4 -20z"/>
<path d="M800 1985 c0 -8 5 -15 10 -15 6 0 10 7 10 15 0 8 -4 15 -10 15 -5 0
-10 -7 -10 -15z"/>
<path d="M2190 1984 c0 -8 5 -12 10 -9 6 4 8 11 5 16 -9 14 -15 11 -15 -7z"/>
<path d="M810 1950 c-3 -18 -3 -15 4 -70 10 -73 45 -156 102 -243 30 -45 55
-84 56 -87 2 -3 18 -16 36 -29 18 -13 31 -25 28 -28 -6 -7 19 -33 32 -33 5 0
15 -7 22 -15 7 -8 16 -12 21 -9 5 3 9 0 9 -5 0 -6 6 -11 13 -11 6 1 -1 11 -16
23 -164 128 -250 259 -287 437 -10 47 -19 78 -20 70z"/>
<path d="M2191 1943 c-1 -6 -4 -20 -7 -30 -5 -17 -5 -17 6 0 6 10 9 23 6 30
-3 9 -5 9 -5 0z"/>
<path d="M2145 1750 c3 -5 8 -10 11 -10 2 0 4 5 4 10 0 6 -5 10 -11 10 -5 0
-7 -4 -4 -10z"/>
<path d="M1999 1540 c-13 -10 -19 -19 -13 -20 6 0 19 9 29 20 23 26 14 26 -16
0z"/>
<path d="M1934 1474 c-18 -14 -18 -15 4 -4 12 6 22 13 22 15 0 8 -5 6 -26 -11z"/>
</g>
</svg>
